PathFileType	4	(x/y/z)	S05_P20_T08
DataRate	CameraRate	NumFrames	NumMarkers	Units	OrigDataRate	OrigDataStartFrame	OrigNumFrames
240	240	7	50	mm	240	242	386
Frame#	Time	Sternum			R.Acromium			L.Acromium			Top.Head			R.ASIS			L.ASIS			R.PSIS			L.PSIS			R.Great.Tro			L.Great.Tro			R.Iliac.Crest			L.Iliac.Crest			V.Sacral			R.Thigh.Upper.Post			R.Thigh.Lower.Ant			R.Thigh.Lower.Post			R.Thigh.Upper.Ant			R.Knee.Lat			R.Knee.Med			R.Shank.Upper.Post			R.Shank.Lower.Ant			R.Shank.Lower.Post			R.Shank.Upper.Ant			R.Ankle.Lat			R.Ankle.Med			R.Heel.Upper			R.Heel.Med			R.Heel.Lat			R.Toe.Lat			R.Toe.Med			R.Toe.Tip			L.Thigh.Upper.Post			L.Thigh.Lower.Ant			L.Thigh.Lower.Post			L.Thigh.Upper.Ant			L.Knee.Lat			L.Shank.Upper.Post			L.Shank.Lower.Ant			L.Shank.Lower.Post			L.Shank.Upper.Ant			L.Ankle.Lat			L.Ankle.Med			L.Heel.Upper			L.Heel.Med			L.Heel.Lat			L.Toe.Lat			L.Toe.Med			L.Toe.Tip			Cervical.Spine			Back			
		X1	Y1	Z1	X2	Y2	Z2	X3	Y3	Z3	X4	Y4	Z4	X5	Y5	Z5	X6	Y6	Z6	X7	Y7	Z7	X8	Y8	Z8	X9	Y9	Z9	X10	Y10	Z10	X11	Y11	Z11	X12	Y12	Z12	X13	Y13	Z13	X14	Y14	Z14	X15	Y15	Z15	X16	Y16	Z16	X17	Y17	Z17	X18	Y18	Z18	X19	Y19	Z19	X20	Y20	Z20	X21	Y21	Z21	X22	Y22	Z22	X23	Y23	Z23	X24	Y24	Z24	X25	Y25	Z25	X26	Y26	Z26	X27	Y27	Z27	X28	Y28	Z28	X29	Y29	Z29	X30	Y30	Z30	X31	Y31	Z31	X32	Y32	Z32	X33	Y33	Z33	X34	Y34	Z34	X35	Y35	Z35	X36	Y36	Z36	X37	Y37	Z37	X38	Y38	Z38	X39	Y39	Z39	X40	Y40	Z40	X41	Y41	Z41	X42	Y42	Z42	X43	Y43	Z43	X44	Y44	Z44	X45	Y45	Z45	X46	Y46	Z46	X47	Y47	Z47	X48	Y48	Z48	X49	Y49	Z49	X50	Y50	Z50	

242	1.0042	-52.084	1236	329.41	-137.23	1499.3	484.32	-151.9	1505.9	148.57	-150.02	1807.7	295.3	-132.39	986.92	466.63	-106.35	992.46	217.15	-323.03	1012.9	356.35	-312.85	1008.9	265.45	-231.63	916.06	518.44	-175.66	910.85	131.39	-220.71	1076.6	493.64	-195.68	1065.9	157.96	-332.82	977.27	323.8	-219.56	688.48	510.25	-177.41	606.29	465.42	-246.53	604.13	489.59	-152.53	689.61	489	-283.73	510.9	471.71	-270.21	494.63	340.42	-463.17	331.15	451.65	-438.38	244.33	450.96	-496.33	264.36	430.98	-403.02	311.77	468.5	-500.48	157.9	430.12	-475.59	178.86	343.3	-583.79	136.3	363.99	-583.02	103.41	336.15	-588.01	107.11	400.93	-445.29	39.123	466.22	-400.16	37.948	348.82	-340.58	43.002	397.46	-107.3	681.44	141.71	-12.241	634.03	172.61	-72.065	594.61	160.94	-39.413	719.32	153.94	-29.37	516.69	168.57	-33.989	307.07	164.52	47.33	271.15	169.78	-15.156	237.62	182.42	24.853	337.64	158.25	57.6	113.68	188.92	88.216	139.59	274.19	18.392	57.315	244.49	38.251	37.392	277.01	26.589	31	216.75	198.05	72.539	154.05	221.32	94.623	269.85	274.14	124.86	212.8	-194.75	1546.1	324.03	-313.01	1273.4	328.49
243	1.0083	-46.004	1236.1	328.76	-131.37	1499.4	483.4	-146.1	1505.7	147.61	-144.26	1807.7	294.19	-126.34	986.92	466.17	-100.1	992.54	216.73	-316.94	1012.7	355.73	-306.72	1008.9	264.81	-225.6	915.86	517.9	-169.37	910.99	130.97	-214.83	1076.5	493.05	-189.38	1065.9	157.45	-326.65	977.15	323.12	-212.68	688.24	510.43	-169.99	606.09	466.05	-239.17	603.68	489.95	-145.63	689.65	489.31	-275.99	510.4	472.44	-261.84	493.66	341.35	-457.45	333.19	452.15	-433.93	245.96	451.5	-491.51	266.87	431.37	-397.63	312.84	469.11	-497.23	160.51	430.55	-471.85	181	343.97	-580.47	140.85	364.27	-580.36	108.15	336.22	-585.49	111.59	400.99	-444.88	39.908	466.2	-399.65	38.397	348.94	-340.38	42.74	397.56	-101.11	681.61	141.77	-6.045	634.16	172.53	-65.904	594.77	161.02	-33.145	719.44	153.74	-23.263	516.81	168.44	-29.662	307.2	164.47	51.254	270.44	169.92	-11.6	237.55	182.35	29.506	337.17	158.32	59.449	112.99	188.93	90.421	138.44	274.25	19.349	57.806	244.49	38.643	37.48	277.04	26.909	31.279	216.75	199.16	69.662	154.16	222.85	91.353	269.94	276.17	120.65	212.88	-188.94	1546.1	323.07	-307.03	1273.3	327.82
244	1.0125	-39.922	1236.2	328.11	-125.51	1499.5	482.48	-140.28	1505.6	146.66	-138.49	1807.8	293.08	-120.3	986.96	465.71	-93.87	992.68	216.31	-310.88	1012.6	355.1	-300.61	1008.9	264.17	-219.55	915.66	517.34	-163.13	911.19	130.54	-208.98	1076.5	492.45	-183.08	1066.1	156.95	-320.5	977.07	322.43	-205.64	688.02	510.64	-162.35	605.94	466.71	-231.58	603.23	490.35	-138.57	689.74	489.64	-267.95	509.87	473.21	-253.16	492.66	342.32	-451.4	335.29	452.68	-429.19	247.67	452.06	-486.37	269.48	431.79	-391.94	313.97	469.74	-493.72	163.27	431	-467.84	183.26	344.67	-576.83	145.63	364.55	-577.41	113.16	336.28	-582.69	116.33	401.04	-444.39	40.841	466.17	-399.03	38.94	349.06	-340.1	42.479	397.69	-95.039	681.82	141.77	0.037581	634.31	172.38	-59.866	594.96	161.03	-26.981	719.59	153.49	-17.277	516.95	168.27	-25.444	307.37	164.4	55.069	269.79	170.01	-8.1402	237.53	182.26	34.04	336.75	158.35	61.213	112.36	188.92	92.539	137.39	274.29	20.267	58.315	244.5	39.006	37.621	277.07	27.195	31.593	216.75	200.18	66.905	154.22	224.29	88.23	269.97	278.07	116.59	212.88	-183.14	1546.2	322.1	-301.06	1273.3	327.13
245	1.0167	-33.844	1236.4	327.48	-119.67	1499.7	481.55	-134.45	1505.5	145.71	-132.71	1807.9	291.99	-114.29	987.04	465.22	-87.67	992.86	215.88	-304.84	1012.5	354.48	-294.53	1009.1	263.54	-213.49	915.47	516.78	-156.94	911.46	130.09	-203.15	1076.4	491.85	-176.8	1066.3	156.46	-314.38	977.04	321.73	-198.42	687.81	510.87	-154.48	605.82	467.4	-223.77	602.77	490.78	-131.35	689.89	489.99	-259.61	509.34	474.03	-244.16	491.65	343.34	-445.01	337.47	453.25	-424.15	249.46	452.63	-480.92	272.2	432.25	-385.93	315.15	470.4	-489.93	166.17	431.47	-463.57	185.64	345.39	-572.86	150.65	364.84	-574.16	118.42	336.32	-579.61	121.33	401.07	-443.79	41.939	466.14	-398.3	39.59	349.2	-339.74	42.225	397.85	-89.067	682.07	141.71	6.0115	634.48	172.15	-53.944	595.18	160.96	-20.916	719.76	153.18	-11.412	517.11	168.05	-21.34	307.59	164.3	58.768	269.19	170.05	-4.7834	237.57	182.16	38.451	336.36	158.33	62.893	111.8	188.9	94.567	136.43	274.3	21.145	58.831	244.49	39.344	37.805	277.08	27.455	31.933	216.75	201.09	64.278	154.23	225.64	85.265	269.95	279.86	112.67	212.82	-177.35	1546.3	321.13	-295.09	1273.3	326.43
246	1.0208	-27.774	1236.7	326.87	-113.84	1500	480.63	-128.61	1505.5	144.77	-126.93	1808.1	290.9	-108.31	987.16	464.73	-81.504	993.09	215.44	-298.83	1012.5	353.86	-288.49	1009.3	262.91	-207.42	915.28	516.21	-150.81	911.8	129.62	-197.35	1076.4	491.25	-170.54	1066.6	155.97	-308.28	977.05	321.03	-191.03	687.6	511.13	-146.41	605.75	468.13	-215.73	602.31	491.24	-123.96	690.09	490.35	-250.97	508.79	474.89	-234.85	490.63	344.39	-438.28	339.72	453.83	-418.81	251.33	453.22	-475.15	275.02	432.73	-379.6	316.38	471.08	-485.85	169.23	431.94	-459.02	188.14	346.13	-568.56	155.9	365.12	-570.58	123.93	336.36	-576.24	126.59	401.09	-443.06	43.218	466.1	-397.42	40.363	349.36	-339.28	41.984	398.05	-83.193	682.36	141.57	11.882	634.67	171.86	-48.131	595.43	160.81	-14.947	719.97	152.81	-5.6728	517.29	167.77	-17.356	307.84	164.17	62.349	268.64	170.05	-1.534	237.66	182.03	42.733	336.02	158.26	64.491	111.3	188.87	96.502	135.55	274.29	21.982	59.346	244.48	39.662	38.021	277.09	27.695	32.291	216.73	201.93	61.793	154.2	226.91	82.467	269.89	281.53	108.93	212.71	-171.57	1546.4	320.16	-289.13	1273.3	325.72
247	1.025	-21.718	1237	326.28	-108.02	1500.4	479.71	-122.75	1505.5	143.85	-121.15	1808.3	289.84	-102.35	987.31	464.22	-75.381	993.37	214.99	-292.85	1012.5	353.26	-282.48	1009.5	262.29	-201.34	915.1	515.63	-144.75	912.2	129.13	-191.57	1076.5	490.66	-164.31	1066.9	155.48	-302.22	977.1	320.34	-183.46	687.39	511.41	-138.12	605.71	468.87	-207.48	601.86	491.73	-116.42	690.33	490.73	-242.05	508.23	475.78	-225.25	489.6	345.47	-431.21	342.03	454.44	-413.16	253.29	453.81	-469.05	277.94	433.24	-372.96	317.66	471.78	-481.49	172.43	432.43	-454.2	190.77	346.89	-563.91	161.36	365.4	-566.67	129.67	336.39	-572.56	132.1	401.11	-442.19	44.692	466.05	-396.39	41.274	349.54	-338.68	41.764	398.28	-77.412	682.69	141.37	17.653	634.89	171.5	-42.422	595.72	160.58	-9.0704	720.21	152.39	-0.060647	517.49	167.45	-13.494	308.13	164.01	65.806	268.13	170.01	1.6042	237.8	181.89	46.882	335.71	158.15	66.005	110.87	188.84	98.341	134.77	274.25	22.777	59.849	244.46	39.964	38.261	277.09	27.919	32.659	216.72	202.68	59.453	154.13	228.09	79.841	269.79	283.08	105.37	212.56	-165.8	1546.6	319.2	-283.18	1273.4	325.01
248	1.0292	-15.682	1237.4	325.7	-102.23	1500.7	478.8	-116.88	1505.5	142.93	-115.37	1808.6	288.78	-96.431	987.49	463.69	-69.304	993.69	214.52	-286.92	1012.5	352.67	-276.52	1009.8	261.69	-195.24	914.91	515.05	-138.75	912.65	128.62	-185.82	1076.5	490.07	-158.12	1067.3	155.01	-296.21	977.18	319.65	-175.73	687.2	511.71	-129.62	605.72	469.64	-199.01	601.41	492.25	-108.72	690.63	491.12	-232.85	507.67	476.7	-215.36	488.58	346.58	-423.8	344.4	455.07	-407.21	255.33	454.4	-462.63	280.97	433.78	-366	319	472.49	-476.84	175.79	432.93	-449.09	193.52	347.65	-558.91	167.02	365.68	-562.44	135.62	336.41	-568.57	137.83	401.12	-441.14	46.376	466.01	-395.17	42.339	349.74	-337.93	41.577	398.57	-71.721	683.06	141.1	23.328	635.13	171.08	-36.811	596.04	160.28	-3.2825	720.47	151.92	5.4222	517.7	167.08	-9.7588	308.45	163.82	69.138	267.67	169.93	4.6287	237.97	181.72	50.895	335.44	157.99	67.438	110.49	188.79	100.08	134.06	274.19	23.531	60.335	244.43	40.25	38.516	277.08	28.13	33.029	216.7	203.36	57.265	154.03	229.19	77.389	269.66	284.51	102	212.37	-160.04	1546.8	318.25	-277.25	1273.6	324.29
